<?xml version="1.0" standalone="no"?>
<!DOCTYPE svg PUBLIC "-//W3C//DTD SVG 20010904//EN"
 "http://www.w3.org/TR/2001/REC-SVG-20010904/DTD/svg10.dtd">
<svg version="1.0" xmlns="http://www.w3.org/2000/svg"
 width="972.000000pt" height="932.000000pt" viewBox="0 0 972.000000 932.000000"
 preserveAspectRatio="xMidYMid meet">

<g transform="translate(0.000000,932.000000) scale(0.100000,-0.100000)"
fill="#000000" stroke="none">
<path d="M3193 6436 c-9 -11 -7 -16 10 -25 21 -11 21 -11 -3 -4 -33 9 -72 5
-84 -7 -6 -6 -19 -10 -30 -10 -18 0 -19 -2 -6 -11 12 -8 9 -10 -12 -6 -15 2
-25 0 -22 -4 3 -5 -4 -9 -15 -9 -37 0 -53 -11 -40 -27 11 -12 8 -13 -14 -8
-19 5 -28 3 -32 -7 -6 -15 -11 -16 -60 -19 -31 -2 -32 -7 -2 -20 17 -7 12 -8
-23 -4 -24 3 -41 3 -37 -1 4 -4 -5 -13 -20 -20 l-28 -12 29 -1 c38 -1 31 -7
-19 -15 -31 -5 -36 -4 -25 4 12 9 12 11 1 8 -22 -6 -25 -28 -4 -28 17 -1 17
-1 1 -11 -9 -5 -15 -16 -12 -23 3 -8 -6 -19 -25 -27 l-30 -13 27 -11 c18 -8
22 -14 14 -19 -7 -4 -12 -2 -12 3 0 6 -12 10 -27 10 -25 -2 -26 -2 -5 -6 15
-3 22 -10 18 -18 -6 -16 42 -35 90 -35 18 0 36 -4 39 -10 3 -6 -4 -10 -17 -10
l-23 0 25 -20 c14 -11 32 -18 41 -16 9 2 24 -5 33 -16 9 -10 22 -16 28 -12 7
4 8 3 4 -4 -4 -7 -2 -12 4 -12 6 0 9 -4 5 -9 -3 -5 4 -13 16 -16 12 -4 39 -25
60 -47 35 -37 59 -43 59 -15 0 16 36 47 54 47 8 0 17 6 19 13 4 10 6 10 6 0 1
-7 6 -13 12 -13 5 0 7 5 4 10 -4 6 5 10 19 10 22 0 26 5 26 29 0 16 -7 42 -15
57 -22 43 -17 94 10 94 7 0 20 10 28 23 31 46 88 97 108 97 25 0 59 17 59 30
0 5 -10 18 -22 30 -18 17 -19 20 -5 20 9 0 17 5 17 11 0 6 -7 9 -15 5 -8 -3
-15 -1 -15 4 0 6 7 10 16 10 8 0 12 5 8 11 -3 6 -1 15 6 19 7 4 10 12 6 18 -7
12 -93 32 -136 32 -17 0 -30 5 -30 10 0 14 -23 12 -37 -4z m160 -33 c-7 -2
-21 -2 -30 0 -10 3 -4 5 12 5 17 0 24 -2 18 -5z m-206 -35 c-3 -8 -6 -5 -6 6
-1 11 2 17 5 13 3 -3 4 -12 1 -19z m73 2 c0 -13 -11 -13 -30 0 -12 8 -11 10 8
10 12 0 22 -4 22 -10z m120 -65 c0 -8 -4 -15 -10 -15 -5 0 -10 7 -10 15 0 8 5
15 10 15 6 0 10 -7 10 -15z m-360 -21 c0 -2 -7 -4 -15 -4 -8 0 -15 4 -15 10 0
5 7 7 15 4 8 -4 15 -8 15 -10z m327 -20 c-3 -3 -12 -4 -19 -1 -8 3 -5 6 6 6
11 1 17 -2 13 -5z m-434 -11 c-7 -2 -19 -2 -25 0 -7 3 -2 5 12 5 14 0 19 -2
13 -5z m4 -29 c-3 -3 -12 -4 -19 -1 -8 3 -5 6 6 6 11 1 17 -2 13 -5z m-54 -11
c-7 -2 -19 -2 -25 0 -7 3 -2 5 12 5 14 0 19 -2 13 -5z m-23 -71 c0 -10 -7 -19
-14 -19 -11 0 -13 5 -5 19 5 10 12 18 14 18 3 0 5 -8 5 -18z m371 -173 c-5
-13 -10 -19 -10 -12 -1 15 10 45 15 40 3 -2 0 -15 -5 -28z"/>
<path d="M3959 6418 c-1 -7 -1 -17 0 -23 0 -6 -22 -9 -52 -8 -28 0 -38 -1 -22
-3 72 -11 75 -12 75 -50 0 -21 4 -33 10 -29 6 4 10 -8 10 -29 0 -20 -4 -36
-10 -36 -5 0 -10 -13 -10 -30 0 -16 -4 -30 -10 -30 -5 0 -10 -17 -10 -37 1
-34 2 -36 14 -20 9 12 16 14 21 8 3 -6 1 -11 -4 -11 -12 0 -15 -39 -4 -67 6
-16 8 -15 14 7 7 24 7 24 8 3 1 -13 6 -23 11 -23 6 0 10 38 10 95 0 98 13 126
25 53 4 -23 16 -50 26 -62 19 -20 19 -20 19 7 0 14 4 28 9 31 4 3 9 -19 9 -49
0 -30 4 -64 7 -76 7 -21 8 -21 18 -4 7 14 7 20 -1 23 -19 6 -14 31 11 56 l23
23 2 -80 c3 -84 -4 -121 -19 -112 -5 4 -9 -3 -9 -13 0 -11 -7 -25 -15 -32 -8
-7 -15 -23 -15 -36 0 -17 4 -22 15 -18 8 4 15 12 15 20 0 17 39 58 47 50 3 -3
1 -12 -6 -19 -6 -8 -14 -35 -17 -60 -4 -26 -11 -44 -15 -41 -5 3 -9 -8 -9 -25
0 -48 18 -45 26 4 7 52 14 52 23 -2 5 -30 11 -39 30 -41 18 -3 22 0 18 15 -6
20 -10 71 -8 119 1 28 35 83 45 73 14 -14 9 -42 -7 -45 -23 -3 -33 -12 -23
-21 4 -4 16 -2 26 5 32 20 40 14 40 -25 0 -25 -3 -33 -9 -25 -5 9 -10 -1 -14
-29 -3 -24 -11 -45 -16 -47 -6 -2 -11 -15 -11 -28 0 -14 -4 -22 -10 -19 -5 3
-10 1 -10 -5 0 -6 -6 -17 -12 -24 -11 -11 -15 -11 -25 3 -11 15 -12 14 -13 -2
0 -24 -42 -65 -74 -73 -14 -3 -26 -10 -26 -15 0 -12 27 -12 32 0 2 5 18 12 37
16 33 7 34 6 18 -9 -9 -10 -17 -24 -17 -32 0 -8 -4 -14 -10 -14 -5 0 -10 -9
-10 -19 0 -11 -5 -21 -12 -23 -6 -2 -12 -30 -14 -64 -1 -32 0 -47 2 -31 3 15
10 25 15 22 5 -4 9 5 9 19 0 14 5 26 10 26 6 0 10 7 10 15 0 16 46 65 60 65 6
0 10 -11 10 -25 0 -14 -4 -25 -10 -25 -5 0 -9 -3 -9 -7 4 -25 -2 -53 -11 -48
-6 4 -10 -10 -10 -34 0 -23 -4 -41 -9 -41 -5 0 -11 -18 -15 -40 -3 -22 -11
-40 -16 -40 -6 0 -10 -12 -10 -27 0 -21 -3 -24 -10 -13 -14 23 -15 11 -9 -85
4 -62 8 -83 13 -67 5 12 12 22 16 22 5 0 12 25 15 55 4 30 11 55 16 55 5 0 9
7 9 15 0 8 5 15 10 15 6 0 10 11 10 25 0 14 4 25 9 25 5 0 11 18 15 40 4 23
11 38 16 35 6 -3 10 3 10 14 0 28 17 27 26 -1 4 -13 15 -30 25 -39 11 -9 19
-21 19 -27 0 -6 18 -29 40 -52 41 -43 44 -70 6 -70 -24 1 -59 24 -49 33 3 4
-5 7 -20 7 -14 0 -31 2 -39 3 -7 2 -10 2 -5 0 4 -3 4 -10 0 -15 -4 -7 2 -9 15
-6 15 4 22 2 22 -8 0 -8 9 -14 21 -14 27 0 19 -24 -9 -28 -11 -2 -24 -12 -27
-22 -3 -10 -16 -20 -28 -22 -14 -2 -23 -11 -25 -26 -2 -12 -8 -20 -13 -17 -5
4 -9 -1 -9 -11 0 -9 -10 -25 -22 -35 -11 -11 -18 -22 -13 -27 4 -4 10 -1 12 6
3 6 9 12 14 12 12 0 12 -37 -1 -45 -5 -3 -10 -10 -10 -16 0 -16 22 -10 40 11
12 13 35 21 76 26 32 3 54 2 48 -3 -6 -4 -15 -23 -19 -40 -5 -26 -12 -33 -31
-33 -13 0 -24 -4 -24 -10 0 -5 -9 -10 -20 -10 -11 0 -20 -4 -20 -10 0 -5 11
-10 25 -10 28 0 33 -20 10 -44 -16 -16 -21 -56 -6 -56 5 0 13 9 16 20 3 11 10
20 15 20 5 0 16 8 26 17 16 17 17 15 11 -42 -3 -33 -11 -61 -17 -63 -5 -2 -10
-10 -10 -18 0 -8 -4 -14 -9 -14 -5 0 -11 -8 -14 -17 -2 -10 -8 -27 -12 -38
l-8 -20 17 20 c16 19 16 19 5 -7 -7 -15 -15 -25 -20 -23 -4 3 -14 -2 -23 -11
-9 -8 -32 -18 -51 -21 -19 -3 -35 -10 -35 -14 0 -5 -11 -9 -25 -9 -14 0 -25
-6 -25 -12 0 -9 15 -12 50 -10 27 2 50 8 50 13 0 5 7 9 15 9 8 0 15 4 15 9 0
11 59 26 67 17 3 -3 0 -12 -7 -21 -17 -21 -9 -27 13 -10 11 8 21 31 24 54 3
23 10 41 14 41 5 0 9 7 9 15 0 8 5 15 10 15 6 0 10 -11 10 -25 0 -14 5 -25 10
-25 6 0 10 -30 10 -71 0 -59 3 -70 15 -65 21 8 20 -57 -1 -89 -20 -31 -14 -54
8 -31 9 9 21 16 26 16 11 0 3 -94 -9 -98 -12 -5 -11 -22 1 -22 5 0 12 11 16
25 3 14 10 25 15 25 5 0 9 11 9 25 0 14 5 25 10 25 6 0 10 9 10 20 0 11 -4 20
-10 20 -5 0 -10 11 -10 25 0 31 16 33 26 3 4 -13 15 -30 25 -39 11 -9 19 -21
19 -27 0 -6 4 -12 10 -14 5 -1 11 -15 12 -30 1 -16 9 -29 20 -31 23 -6 58 3
58 14 0 5 9 9 20 9 11 0 20 -4 20 -10 0 -5 13 -10 28 -10 26 0 28 2 24 35 -2
19 0 35 5 35 15 0 41 -37 48 -69 5 -22 12 -31 26 -31 10 0 19 -4 19 -10 0 -5
12 -10 28 -10 47 0 102 -12 96 -21 -3 -5 4 -9 16 -9 13 0 19 4 14 11 -4 7 0 9
14 5 17 -6 21 -1 26 39 4 25 10 45 14 45 11 0 32 -51 32 -77 0 -18 6 -23 25
-23 28 0 31 9 13 29 -10 11 -10 13 0 7 6 -4 12 -2 12 3 0 26 20 8 26 -24 7
-37 24 -48 24 -15 0 11 -4 20 -10 20 -5 0 -10 7 -10 15 0 8 5 15 10 15 6 0 10
7 10 15 0 8 -4 15 -10 15 -5 0 -10 15 -10 34 0 45 31 43 42 -2 5 -18 14 -32
20 -32 9 0 9 3 0 12 -15 15 -16 54 -2 63 6 3 10 19 10 36 0 16 5 29 10 29 6 0
10 7 10 15 0 17 55 76 64 68 10 -11 7 -103 -4 -103 -5 0 -10 -11 -10 -25 0
-13 -4 -34 -9 -47 -6 -13 -12 -40 -16 -60 -4 -25 -12 -39 -25 -43 -11 -4 -20
-15 -20 -25 0 -10 -6 -21 -12 -23 -7 -3 4 -6 25 -6 27 -1 37 3 37 14 0 8 5 15
10 15 6 0 10 7 10 17 0 9 11 31 25 49 14 18 25 39 25 47 0 10 9 13 28 10 22
-3 24 -2 7 5 -18 8 -17 10 12 16 23 5 30 12 26 23 -3 8 -1 18 5 22 7 4 18 25
26 46 l15 40 0 -57 c1 -49 -2 -58 -16 -59 -10 0 -13 -3 -7 -5 8 -3 7 -23 -1
-69 -7 -36 -9 -62 -4 -59 5 3 9 13 9 22 0 9 11 30 25 46 13 16 22 32 20 36 -3
4 6 10 20 12 25 5 25 4 25 -58 0 -35 4 -64 9 -64 14 0 19 11 22 55 3 32 13 49
47 83 24 23 46 42 49 42 2 0 3 -12 0 -27 -2 -16 -2 -22 0 -15 3 6 9 12 14 12
5 0 9 7 9 15 0 8 7 15 16 15 9 0 21 14 27 30 6 17 19 32 28 35 9 3 19 20 23
37 3 17 9 28 13 25 9 -9 53 45 46 56 -3 6 -1 7 5 3 7 -4 12 -16 12 -28 0 -13
5 -18 14 -15 10 4 13 1 10 -8 -3 -8 0 -21 8 -29 27 -31 37 -41 54 -56 16 -13
17 -13 11 4 -4 10 -7 22 -7 27 0 6 -4 7 -10 4 -5 -3 -10 3 -10 15 0 12 -4 18
-10 15 -5 -3 -10 -2 -10 4 0 5 6 12 13 14 10 4 10 6 0 6 -24 2 -53 41 -52 69
l1 27 7 -25 7 -25 7 25 c4 14 7 39 8 55 1 24 3 25 6 7 3 -14 9 -20 16 -15 7 4
6 -1 -2 -10 -9 -12 -10 -17 -2 -17 8 0 9 -5 1 -19 -16 -32 -13 -43 10 -29 11
7 20 22 20 34 0 32 32 124 41 119 4 -3 10 1 12 7 4 10 8 9 16 -2 9 -13 11 -12
12 5 1 11 1 23 0 28 0 4 8 7 19 7 15 0 22 8 26 29 6 29 37 51 74 51 12 0 17 5
14 18 -4 14 2 17 36 17 26 1 40 -3 40 -12 0 -7 -5 -13 -12 -13 -6 0 -8 -3 -4
-7 14 -14 46 41 46 80 0 20 5 37 10 37 6 0 10 18 10 39 0 22 -4 43 -10 46 -6
3 -10 50 -10 104 l0 98 -72 2 c-40 1 -74 6 -76 12 -2 5 -15 9 -28 9 -13 0 -24
4 -24 9 0 5 -20 12 -44 15 -23 4 -53 16 -64 26 -12 11 -28 20 -37 20 -8 0 -15
4 -15 10 0 5 -16 12 -35 16 -19 3 -35 10 -35 15 0 5 -11 9 -25 9 -14 0 -25 4
-25 9 0 5 -25 13 -55 16 -30 4 -58 11 -61 16 -3 5 -18 9 -35 9 -16 0 -29 5
-29 10 0 6 -13 10 -30 10 -16 0 -30 4 -30 9 0 5 -18 11 -40 15 -22 3 -40 11
-40 16 0 6 -13 10 -29 10 -17 0 -32 4 -35 9 -3 4 -24 11 -46 15 -22 3 -40 11
-40 16 0 6 -9 10 -20 10 -11 0 -20 4 -20 9 0 5 -15 13 -32 17 -18 3 -39 15
-46 25 -7 11 -20 19 -28 19 -8 0 -14 4 -14 10 0 5 -16 12 -35 16 -20 3 -37 13
-40 24 -3 11 -20 21 -40 24 -19 4 -35 11 -35 16 0 6 -5 10 -10 10 -6 0 -20 9
-31 19 -12 11 -33 22 -47 26 -14 3 -33 14 -41 24 -9 10 -26 21 -38 25 -13 4
-23 12 -23 17 0 5 -7 9 -15 9 -8 0 -15 4 -15 9 0 5 -10 13 -22 17 -13 4 -30
15 -39 25 -9 11 -21 19 -28 19 -6 0 -11 4 -11 10 0 5 -12 13 -27 16 -31 8 -55
28 -46 38 4 3 -4 6 -16 6 -12 0 -24 7 -27 15 -4 8 -13 15 -20 15 -8 0 -24 9
-36 20 -12 10 -25 17 -30 14 -4 -3 -8 1 -8 9 0 8 -12 23 -26 33 -14 10 -32 25
-39 32 -8 6 -18 12 -24 12 -6 0 -11 4 -11 10 0 5 -11 12 -25 16 -14 3 -25 10
-25 15 0 5 -7 9 -16 9 -8 0 -12 5 -9 10 3 6 -1 10 -9 10 -9 0 -16 4 -16 9 0 5
-19 12 -42 16 -24 4 -50 15 -58 25 -8 9 -25 20 -37 24 -12 4 -24 15 -28 25
-11 36 -143 71 -146 39z m216 -145 c-3 -16 -10 -50 -15 -78 l-8 -50 4 55 c2
30 4 65 4 78 0 12 5 22 11 22 7 0 9 -10 4 -27z m125 -123 c0 -5 -4 -10 -10
-10 -5 0 -10 5 -10 10 0 6 5 10 10 10 6 0 10 -4 10 -10z m20 -195 c0 -19 -4
-35 -10 -35 -5 0 -10 16 -10 35 0 19 5 35 10 35 6 0 10 -16 10 -35z m290 -277
c0 -19 -2 -20 -10 -8 -13 19 -13 30 0 30 6 0 10 -10 10 -22z m-23 -32 c-9 -22
-47 -21 -46 2 0 9 3 12 5 5 8 -18 34 -4 27 15 -5 13 -3 14 7 5 7 -6 10 -19 7
-27z m-34 -50 c4 4 7 2 7 -4 0 -7 -7 -12 -15 -12 -8 0 -15 9 -15 21 0 11 -5
17 -10 14 -6 -4 -8 -11 -5 -16 4 -5 -1 -9 -9 -9 -13 0 -13 4 2 30 l17 29 10
-30 c6 -17 14 -27 18 -23z m52 -15 c0 -22 -3 -34 -7 -28 -10 16 -10 67 0 67 4
0 7 -18 7 -39z m-139 -23 l-6 -23 11 23 c7 12 19 22 28 21 12 0 13 -2 2 -6
-10 -4 -11 -7 -1 -13 18 -11 4 -44 -15 -36 -8 3 -15 1 -15 -5 0 -6 -4 -7 -10
-4 -5 3 -10 -2 -11 -12 0 -16 -1 -16 -8 2 -5 11 -6 26 -3 34 3 9 1 12 -6 7 -7
-4 -12 -2 -12 3 0 6 7 11 16 11 8 0 12 5 9 10 -3 6 1 10 10 10 12 0 15 -6 11
-22z m155 -122 c1 -39 1 -74 0 -78 0 -5 4 -8 10 -8 6 0 9 -17 7 -42 -3 -42 -4
-43 -40 -46 -21 -2 -38 -7 -38 -13 0 -5 -16 -9 -35 -9 -19 0 -35 5 -35 10 0 6
-8 10 -18 10 -10 0 -25 9 -35 20 -10 12 -21 18 -26 15 -5 -2 -12 6 -15 20 -4
14 -11 25 -16 25 -6 0 -10 7 -10 15 0 8 -4 15 -10 15 -5 0 -10 18 -10 41 0 24
-4 38 -10 34 -6 -4 -10 11 -9 37 0 33 2 38 9 23 8 -19 9 -19 9 3 2 38 38 28
45 -13 4 -19 11 -35 16 -35 6 0 10 -11 10 -25 0 -14 4 -25 8 -25 5 0 14 -11
20 -25 6 -14 16 -25 20 -25 5 0 7 11 4 25 -2 14 -8 25 -11 25 -4 0 -8 6 -9 13
0 6 -4 22 -7 35 -7 20 -4 22 24 22 20 0 30 4 26 10 -4 7 8 8 36 4 24 -4 40 -3
37 2 -3 5 -2 20 3 33 l9 24 20 -23 c16 -18 20 -39 21 -94z m109 86 c0 -13 40
-57 41 -46 1 5 4 -2 8 -16 4 -15 15 -26 29 -28 14 -2 22 -10 22 -23 0 -10 5
-19 10 -19 19 0 10 -22 -21 -51 -17 -16 -37 -29 -45 -29 -8 0 -14 -4 -14 -10
0 -5 -7 -10 -15 -10 -8 0 -15 -4 -15 -10 0 -5 -9 -10 -20 -10 -17 0 -20 7 -20
50 0 28 5 50 10 50 6 0 10 -5 10 -11 0 -5 4 -8 9 -4 5 3 11 -5 13 -17 4 -25
28 -37 28 -14 0 9 -4 16 -10 16 -5 0 -12 16 -16 35 -3 19 -10 32 -15 29 -5 -3
-9 4 -9 15 0 10 -6 21 -12 24 -10 3 -10 9 0 26 6 11 12 30 12 41 0 11 5 20 10
20 6 0 10 -4 10 -8z m201 -179 c13 -16 12 -17 -3 -4 -10 7 -18 15 -18 17 0 8
8 3 21 -13z m-679 -263 c-34 -32 -39 -31 -22 1 6 10 17 19 25 19 8 0 15 5 15
12 0 6 3 8 7 5 3 -4 -8 -20 -25 -37z m1975 -112 c-3 -7 -5 -2 -5 12 0 14 2 19
5 13 2 -7 2 -19 0 -25z m-1862 -218 c-3 -5 -16 -15 -28 -21 l-22 -12 20 21
c21 22 41 30 30 12z m-35 -44 c0 -3 -4 -8 -10 -11 -5 -3 -10 -1 -10 4 0 6 5
11 10 11 6 0 10 -2 10 -4z m1520 -47 c0 -6 -4 -7 -10 -4 -5 3 -10 11 -10 16 0
6 5 7 10 4 6 -3 10 -11 10 -16z m-184 -154 c-11 -8 -22 -12 -25 -9 -6 6 19 24
34 24 6 -1 1 -7 -9 -15z"/>
<path d="M3400 6295 c0 -8 7 -15 15 -15 8 0 15 4 15 9 0 5 -7 11 -15 15 -9 3
-15 0 -15 -9z"/>
<path d="M3438 6225 c-7 -32 -5 -39 9 -34 5 2 6 18 3 34 l-6 30 -6 -30z"/>
<path d="M2648 6173 c7 -3 16 -2 19 1 4 3 -2 6 -13 5 -11 0 -14 -3 -6 -6z"/>
<path d="M2850 5960 c0 -6 7 -10 15 -10 8 0 15 2 15 4 0 2 -7 6 -15 10 -8 3
-15 1 -15 -4z"/>
<path d="M3233 5885 c0 -8 4 -15 9 -15 19 0 38 -30 39 -62 1 -21 3 -25 6 -12
5 25 63 41 63 17 0 -7 7 -13 15 -13 10 0 15 10 15 29 0 35 -15 48 -28 26 -11
-20 -42 -9 -42 15 0 19 -19 30 -54 30 -13 0 -23 -6 -23 -15z"/>
<path d="M4110 5716 c0 -8 5 -18 10 -21 6 -3 10 3 10 14 0 12 -4 21 -10 21 -5
0 -10 -6 -10 -14z"/>
<path d="M4180 5710 c0 -5 5 -10 10 -10 6 0 10 5 10 10 0 6 -4 10 -10 10 -5 0
-10 -4 -10 -10z"/>
<path d="M4210 5281 c0 -6 4 -12 8 -15 5 -3 9 1 9 9 0 8 -4 15 -9 15 -4 0 -8
-4 -8 -9z"/>
<path d="M3244 5235 c-8 -20 5 -53 14 -39 4 6 14 14 22 17 12 4 11 6 -2 6 -10
1 -18 6 -18 12 0 5 5 7 12 3 7 -4 8 -3 4 4 -10 17 -26 15 -32 -3z"/>
<path d="M3336 5224 c-4 -9 -4 -19 -1 -22 2 -3 7 3 11 12 4 9 4 19 1 22 -2 3
-7 -3 -11 -12z"/>
<path d="M3400 5173 c0 -10 4 -14 8 -8 4 6 11 13 16 18 5 4 2 7 -7 7 -10 0
-17 -8 -17 -17z"/>
<path d="M3356 5158 c7 -11 34 -10 34 1 0 6 -9 9 -19 8 -11 0 -17 -5 -15 -9z"/>
<path d="M3295 5050 c3 -5 8 -10 11 -10 2 0 4 5 4 10 0 6 -5 10 -11 10 -5 0
-7 -4 -4 -10z"/>
<path d="M3326 4996 c3 -8 14 -16 25 -19 25 -7 24 -3 -6 17 -19 13 -23 13 -19
2z"/>
<path d="M3416 4865 c-9 -26 -7 -32 5 -12 6 10 9 21 6 23 -2 3 -7 -2 -11 -11z"/>
<path d="M6215 4860 c-3 -5 -1 -10 4 -10 6 0 11 5 11 10 0 6 -2 10 -4 10 -3 0
-8 -4 -11 -10z"/>
<path d="M3450 4850 c0 -5 5 -10 10 -10 6 0 11 -19 11 -42 2 -33 3 -36 6 -14
6 35 -4 76 -17 76 -6 0 -10 -4 -10 -10z"/>
<path d="M6260 4845 c0 -8 4 -15 10 -15 5 0 7 7 4 15 -4 8 -8 15 -10 15 -2 0
-4 -7 -4 -15z"/>
<path d="M3400 4797 c0 -20 4 -37 10 -37 5 0 7 14 3 33 -8 45 -13 47 -13 4z"/>
<path d="M3422 4810 c0 -14 2 -19 5 -12 2 6 2 18 0 25 -3 6 -5 1 -5 -13z"/>
<path d="M6190 4780 c0 -11 5 -20 10 -20 6 0 10 9 10 20 0 11 -4 20 -10 20 -5
0 -10 -9 -10 -20z"/>
<path d="M3410 4743 c0 -5 7 -18 15 -29 12 -16 14 -16 15 -3 0 9 -7 22 -15 29
-8 7 -15 8 -15 3z"/>
<path d="M6140 4695 c0 -8 4 -15 10 -15 5 0 7 7 4 15 -4 8 -8 15 -10 15 -2 0
-4 -7 -4 -15z"/>
<path d="M3453 4645 c0 -22 2 -30 4 -17 2 12 2 30 0 40 -3 9 -5 -1 -4 -23z"/>
<path d="M3500 4645 c0 -19 5 -35 10 -35 6 0 10 16 10 35 0 19 -4 35 -10 35
-5 0 -10 -16 -10 -35z"/>
<path d="M6070 4640 c0 -11 5 -20 10 -20 6 0 10 9 10 20 0 11 -4 20 -10 20 -5
0 -10 -9 -10 -20z"/>
<path d="M2801 4590 c0 -8 4 -24 9 -35 5 -13 9 -14 9 -5 0 8 -4 24 -9 35 -5
13 -9 14 -9 5z"/>
<path d="M5973 4574 c0 -8 4 -14 9 -14 4 0 8 -11 8 -25 0 -14 4 -33 9 -43 5
-9 12 -25 15 -34 7 -22 26 -24 26 -3 0 8 -4 15 -10 15 -5 0 -12 26 -16 58 -5
45 -10 58 -23 59 -10 1 -18 -5 -18 -13z"/>
<path d="M2770 4530 c0 -5 4 -10 9 -10 5 0 12 -8 14 -17 3 -11 5 -7 6 10 1 18
-4 27 -14 27 -8 0 -15 -4 -15 -10z"/>
<path d="M2743 4492 c5 -24 3 -32 -8 -32 -8 0 -15 9 -15 20 0 21 -24 28 -35
10 -3 -5 -1 -10 5 -10 6 0 9 -4 6 -9 -7 -11 -80 -22 -166 -26 -36 -1 -71 -3
-77 -4 -7 0 -13 -11 -13 -22 0 -17 -5 -20 -25 -17 -14 3 -22 1 -18 -5 3 -5 -1
-13 -8 -18 -9 -6 -4 -8 16 -6 22 1 30 -3 33 -18 2 -15 1 -17 -6 -6 -18 25 -20
-12 -3 -39 19 -30 32 -40 43 -34 4 3 8 -1 8 -9 0 -7 14 -26 30 -40 17 -15 30
-32 30 -38 0 -15 26 -39 34 -32 3 4 6 -2 6 -13 0 -16 2 -17 10 -4 8 12 10 10
10 -8 0 -24 23 -56 33 -46 3 3 10 -4 17 -15 15 -28 30 -26 30 3 0 14 5 28 10
31 6 4 8 11 4 16 -3 5 1 20 9 32 8 12 16 44 20 72 3 27 10 51 16 53 6 2 11 16
11 31 0 15 3 31 7 35 7 7 10 23 17 94 4 34 0 48 -16 64 l-21 21 6 -31z m0 -57
c-3 -9 -8 -14 -10 -11 -3 3 -2 9 2 15 9 16 15 13 8 -4z m7 -66 c0 -11 -4 -18
-10 -14 -5 3 -7 12 -3 20 7 21 13 19 13 -6z m-233 -111 c-3 -8 -6 -5 -6 6 -1
11 2 17 5 13 3 -3 4 -12 1 -19z m150 -175 c-3 -10 -5 -4 -5 12 0 17 2 24 5 18
2 -7 2 -21 0 -30z"/>
<path d="M3090 4351 c0 -88 -4 -171 -10 -185 -9 -25 -8 -26 25 -26 l35 0 0 81
c0 51 -4 78 -10 74 -6 -4 -10 16 -10 52 0 80 -11 163 -21 163 -5 0 -9 -72 -9
-159z"/>
<path d="M4370 4495 c0 -8 5 -15 10 -15 6 0 10 7 10 15 0 8 -4 15 -10 15 -5 0
-10 -7 -10 -15z"/>
<path d="M5295 4240 c-3 -5 -1 -10 4 -10 6 0 11 5 11 10 0 6 -2 10 -4 10 -3 0
-8 -4 -11 -10z"/>
<path d="M3121 3978 c-1 -10 -6 -18 -13 -18 -6 0 -9 -3 -5 -6 3 -3 -3 -15 -13
-27 -11 -11 -23 -35 -26 -54 -3 -18 -10 -30 -15 -27 -5 3 -9 -6 -9 -20 0 -14
-4 -26 -8 -26 -5 0 -24 -13 -42 -30 -18 -16 -45 -30 -59 -31 l-26 -1 25 -8
c24 -8 23 -8 -7 -9 -18 -1 -33 4 -33 10 0 5 -4 7 -10 4 -5 -3 -10 -15 -10 -26
0 -10 -4 -19 -10 -19 -5 0 -10 -11 -10 -25 0 -14 -4 -25 -10 -25 -5 0 -10 -18
-10 -40 0 -30 4 -40 16 -40 11 0 14 -6 9 -20 -5 -14 -2 -20 9 -20 9 0 16 -9
16 -20 0 -11 4 -20 9 -20 6 0 14 -19 19 -42 l9 -43 11 45 12 45 -5 -45 c-2
-25 -7 -60 -11 -79 -5 -22 -4 -32 3 -28 7 4 13 -16 17 -53 4 -34 11 -58 17
-55 5 4 9 -3 9 -14 0 -12 5 -21 10 -21 6 0 10 -16 10 -35 0 -32 3 -35 29 -35
89 0 122 -30 101 -94 -6 -20 -15 -34 -20 -31 -4 3 -11 -32 -15 -76 -5 -52 -10
-77 -16 -68 -7 11 -9 11 -9 1 0 -7 -4 -10 -10 -7 -5 3 -10 -2 -10 -12 0 -10
-9 -24 -20 -31 -11 -7 -20 -21 -20 -31 0 -11 -7 -26 -15 -35 -8 -8 -15 -22
-15 -30 0 -9 -4 -16 -10 -16 -5 0 -10 -8 -10 -18 0 -10 -7 -27 -15 -38 -8 -10
-15 -29 -15 -41 0 -12 -5 -23 -11 -25 -6 -2 -13 -51 -16 -121 -3 -65 -10 -120
-15 -123 -11 -7 -10 -54 1 -54 11 0 21 25 21 56 0 13 5 24 10 24 6 0 10 5 10
10 0 18 50 91 59 86 5 -3 11 8 15 25 3 17 10 28 16 24 5 -3 10 -1 10 5 0 6 7
18 15 26 8 9 15 12 15 7 0 -4 9 7 21 26 11 19 27 40 35 48 8 8 14 21 14 29 0
8 7 14 15 14 8 0 15 6 15 14 0 15 37 32 47 22 4 -3 1 -6 -5 -6 -7 0 -12 -6
-12 -14 0 -9 12 -16 33 -18 20 -2 31 -8 29 -17 -1 -7 3 -20 10 -29 10 -12 10
-14 1 -8 -9 5 -13 -1 -13 -23 0 -23 -12 -42 -51 -80 -29 -28 -54 -51 -57 -51
-3 0 -23 -18 -44 -40 -22 -22 -46 -40 -54 -40 -8 0 -14 -5 -14 -11 0 -6 -7
-18 -16 -26 -9 -10 -13 -25 -10 -37 3 -12 6 -36 6 -55 0 -25 3 -31 13 -24 6 5
26 6 42 2 17 -3 24 -7 17 -8 -7 0 -10 -6 -7 -11 4 -6 11 -7 17 -4 6 4 8 2 5
-3 -4 -6 6 -21 22 -34 21 -16 26 -26 18 -31 -9 -6 -9 -10 1 -16 10 -7 9 -15
-4 -40 -8 -18 -20 -32 -25 -32 -5 0 -9 -7 -9 -15 0 -8 -4 -15 -10 -15 -5 0
-10 -6 -10 -14 0 -8 -31 -46 -68 -85 -52 -55 -71 -68 -80 -59 -9 9 -16 8 -30
-5 -25 -23 -49 -21 -57 3 -9 28 -23 16 -31 -25 -3 -20 -10 -37 -14 -40 -5 -3
-12 -30 -15 -60 -4 -30 -11 -52 -16 -49 -5 3 -9 -9 -9 -26 0 -17 -4 -29 -9
-26 -5 3 -12 -16 -16 -44 -4 -27 -11 -50 -15 -50 -7 0 -14 -62 -21 -193 -1
-19 -4 -24 -10 -16 -4 8 -11 10 -15 6 -4 -4 -2 -13 4 -19 7 -7 12 -25 12 -40
0 -15 5 -28 10 -28 6 0 10 -9 10 -20 0 -11 4 -20 9 -20 5 0 12 -16 15 -36 4
-19 10 -42 13 -50 3 -9 -1 -14 -12 -14 -9 0 -19 9 -22 20 -3 11 -9 20 -14 20
-5 0 -9 10 -9 22 0 17 -3 19 -12 10 -9 -9 -9 -22 0 -57 7 -25 12 -60 12 -78 0
-24 3 -28 10 -17 8 12 10 9 10 -12 0 -16 5 -28 11 -28 6 0 9 -9 6 -20 -3 -10
4 -37 15 -59 18 -37 18 -42 4 -63 -21 -30 -20 -58 2 -58 15 0 15 -2 2 -11 -12
-9 -12 -10 3 -5 10 3 20 6 22 6 2 0 1 9 -2 20 -3 11 -1 20 3 20 18 0 30 -16
31 -39 1 -15 15 -35 33 -49 24 -19 28 -27 18 -33 -9 -6 -10 -11 -2 -19 12 -12
44 -3 44 11 0 5 7 9 15 9 12 0 11 -6 -5 -32 -11 -18 -25 -33 -32 -33 -6 0 -13
-6 -16 -14 -3 -9 1 -11 16 -6 21 6 21 6 6 -47 -9 -29 -22 -60 -29 -68 -7 -8
-16 -32 -20 -52 -4 -21 -11 -35 -16 -32 -5 3 -9 -4 -9 -15 0 -12 -4 -21 -10
-21 -5 0 -10 -10 -10 -23 0 -13 -11 -34 -25 -47 -14 -13 -25 -30 -25 -37 0
-23 -30 -74 -40 -68 -6 4 -10 -4 -10 -17 0 -18 -2 -20 -10 -8 -8 13 -10 12
-10 -4 0 -11 -12 -32 -26 -47 -24 -25 -25 -28 -10 -60 11 -26 14 -28 10 -9 -6
34 7 50 50 60 30 7 36 5 36 -9 0 -9 -5 -22 -11 -28 -13 -13 -8 -55 7 -60 6 -2
15 11 19 29 l9 33 3 -32 c3 -18 8 -33 12 -33 14 0 21 57 21 171 0 66 4 109 10
109 6 0 10 15 10 33 0 26 4 33 19 33 17 0 19 -6 14 -53 -4 -36 -2 -53 6 -53 6
0 11 -9 11 -20 0 -11 4 -20 9 -20 5 0 12 -15 16 -33 12 -57 16 -67 31 -67 16
0 19 17 4 22 -12 4 -19 141 -9 178 5 21 7 18 14 -22 4 -26 5 -55 1 -63 -3 -8
-2 -15 3 -15 4 0 16 -18 26 -40 10 -22 24 -40 30 -40 7 0 15 -17 19 -37 4 -25
17 -46 36 -61 17 -13 30 -19 30 -14 0 6 -5 12 -12 14 -14 5 -2 58 13 58 6 0 9
-9 6 -20 -3 -10 1 -24 9 -31 11 -9 14 -7 14 15 0 15 8 31 20 38 11 7 20 19 20
26 0 7 7 15 15 18 8 4 15 17 15 31 0 15 5 23 13 20 14 -5 11 -50 -3 -55 -6 -2
-10 -10 -10 -18 0 -8 -4 -14 -10 -14 -5 0 -10 -7 -10 -15 0 -8 -3 -15 -7 -15
-5 0 -16 -14 -25 -30 l-17 -30 264 0 265 0 0 141 c0 91 4 138 10 134 13 -8 13
226 0 257 -7 16 -6 45 4 98 9 48 15 64 16 45 1 -18 4 -23 7 -12 2 9 9 17 14
17 5 0 9 10 10 23 0 12 3 16 6 10 2 -7 11 -13 18 -13 16 0 26 25 19 45 -4 10
0 15 14 15 15 0 19 -5 15 -20 -4 -15 -2 -19 10 -14 18 7 31 34 16 34 -5 0 1
14 13 31 25 34 25 25 19 284 -2 83 0 157 3 165 4 9 16 20 29 25 12 6 24 19 26
29 4 25 25 46 46 46 27 0 54 19 69 48 14 25 15 26 16 5 0 -22 1 -22 29 5 16
15 41 35 56 45 30 21 75 89 75 113 0 11 5 14 16 10 9 -4 23 -1 31 5 10 9 20 9
38 1 23 -11 25 -10 26 16 1 17 3 20 6 10 6 -24 23 -23 23 2 0 12 -7 20 -17 20
-15 0 -16 2 -3 10 14 9 8 12 -16 9 -3 0 -14 9 -23 20 -10 12 -23 21 -28 21 -5
0 -23 11 -39 25 -27 23 -39 29 -56 27 -3 -1 -12 5 -18 13 -7 8 -19 15 -26 15
-8 0 -14 4 -14 9 0 5 -12 12 -26 15 -14 4 -35 16 -47 26 -11 11 -29 20 -39 20
-11 0 -17 4 -14 9 3 5 -16 12 -44 16 -27 4 -50 11 -50 16 0 5 -11 9 -24 9 -13
0 -26 5 -28 10 -2 6 -27 13 -56 17 -34 4 -49 9 -40 14 9 6 9 9 1 9 -6 0 -15
-4 -18 -10 -16 -27 -25 -3 -25 71 0 51 4 78 10 74 6 -3 10 3 10 15 0 12 -4 19
-9 16 -4 -3 -11 54 -15 127 -4 73 -11 134 -16 135 -6 2 -10 19 -10 38 0 21 -4
33 -10 29 -6 -4 -10 18 -10 60 0 36 -4 64 -9 61 -4 -3 -11 45 -15 107 -4 61
-11 116 -16 121 -6 6 -10 25 -10 44 0 18 -4 31 -9 28 -4 -3 -11 29 -14 72 -3
42 -11 78 -16 80 -6 2 -11 21 -11 43 0 21 -4 39 -10 39 -5 0 -10 5 -10 11 0 8
4 9 13 0 8 -6 16 -8 19 -6 3 3 8 -8 11 -24 4 -17 15 -39 26 -50 11 -11 23 -40
26 -65 4 -26 11 -49 16 -52 5 -3 9 -21 9 -40 0 -21 4 -33 10 -29 6 4 10 -10
10 -34 0 -23 4 -41 9 -41 5 0 13 -36 17 -80 3 -44 11 -83 15 -86 5 -3 9 -25 9
-49 0 -24 4 -46 9 -49 9 -6 21 156 21 283 0 53 3 71 10 61 8 -12 10 -9 10 12
0 15 -4 30 -10 33 -5 3 -10 35 -10 71 0 40 -4 64 -11 64 -6 0 -9 7 -5 15 3 9
0 15 -8 15 -25 0 -27 30 -3 40 19 9 19 10 2 7 -22 -3 -55 31 -55 57 0 10 -9
16 -22 17 -13 0 -17 3 -10 6 17 7 15 23 -4 23 -11 0 -14 6 -9 20 5 15 0 22
-20 30 -20 8 -25 15 -21 36 4 19 1 24 -9 21 -14 -6 -25 20 -25 63 0 18 -3 21
-9 11 -6 -10 -11 -1 -16 28 -4 22 -11 41 -16 41 -5 0 -9 11 -9 25 0 13 -9 39
-20 57 -12 19 -20 51 -20 76 0 31 -4 42 -15 42 -8 0 -15 -4 -15 -10 0 -5 -7
-10 -15 -10 -8 0 -15 -4 -15 -10 0 -5 -13 -10 -30 -10 -20 0 -30 -5 -30 -15 0
-8 -9 -15 -20 -15 -26 0 -25 11 3 40 12 14 21 26 20 27 -8 8 -2 33 8 33 5 0 7
-4 4 -10 -3 -5 0 -10 8 -10 10 0 13 7 10 18 -7 27 -32 23 -39 -5 -5 -18 -10
-21 -17 -14 -6 6 -19 11 -29 11 -22 0 -23 9 -2 25 15 10 15 13 1 27 -14 14
-14 18 -1 37 19 27 16 138 -4 146 -7 3 -11 9 -7 15 3 5 -9 13 -27 18 -23 6
-34 15 -36 31 -2 14 -9 21 -17 17 -8 -3 -16 0 -19 7 -2 7 -5 4 -5 -5z m66
-970 c-3 -7 -5 -2 -5 12 0 14 2 19 5 13 2 -7 2 -19 0 -25z m-80 -60 c-3 -7 -5
-2 -5 12 0 14 2 19 5 13 2 -7 2 -19 0 -25z m33 6 c0 -8 -5 -12 -10 -9 -6 4 -8
11 -5 16 9 14 15 11 15 -7z m-30 -64 c-4 -3 -10 -16 -13 -30 -3 -16 -5 -10 -6
18 -1 36 1 41 13 30 8 -7 10 -15 6 -18z m70 -1155 c0 -19 -4 -37 -10 -40 -6
-4 -10 -62 -10 -141 0 -83 -4 -134 -10 -134 -5 0 -10 -18 -10 -40 0 -22 -4
-40 -9 -40 -5 0 -12 -18 -16 -40 -4 -22 -11 -40 -16 -40 -5 0 -9 -13 -9 -29 0
-16 -4 -31 -10 -33 -5 -1 -11 -21 -13 -43 -2 -22 -2 -30 0 -17 2 12 9 22 14
22 5 0 9 9 9 20 0 11 4 20 9 20 5 0 12 10 15 23 2 12 3 -12 0 -53 -2 -41 -5
-103 -6 -137 0 -35 -5 -60 -9 -57 -5 3 -9 -13 -9 -36 0 -25 -4 -39 -10 -35
-15 10 -12 -3 15 -57 23 -45 36 -100 17 -72 -4 6 -17 16 -29 22 -12 7 -23 21
-25 32 -2 15 -7 17 -18 10 -13 -8 -13 -11 2 -22 11 -8 21 -33 24 -61 9 -64 -8
-76 -47 -35 -25 24 -27 32 -18 50 8 14 8 27 1 43 -12 26 -7 35 19 35 16 0 16
3 4 27 -8 15 -12 30 -9 35 3 4 0 8 -5 8 -7 0 -11 30 -11 80 0 47 4 80 10 80
10 0 15 -43 10 -85 -3 -30 11 -11 20 27 4 18 11 42 16 53 7 17 5 18 -8 8 -8
-7 -18 -10 -21 -6 -11 10 -8 83 3 83 6 0 10 18 10 39 0 22 4 42 9 46 5 3 12
31 16 63 3 31 10 65 15 74 6 10 10 53 10 96 0 43 5 83 10 88 6 6 13 34 17 62
3 29 10 52 14 52 5 0 9 11 9 25 0 14 5 25 10 25 6 0 10 12 10 26 0 14 4 23 10
19 6 -3 10 -21 10 -40z m420 -134 c0 -11 5 -21 10 -23 15 -5 16 -599 1 -624
-8 -15 -10 1 -11 69 0 51 -4 87 -10 87 -6 0 -10 92 -10 255 0 163 4 255 10
255 6 0 10 -9 10 -19z m656 -18 c-11 -11 -19 6 -11 24 8 17 8 17 12 0 3 -10 2
-21 -1 -24z m-619 -265 c-2 -18 -4 -6 -4 27 0 33 2 48 4 33 2 -15 2 -42 0 -60z
m-887 -250 c0 -7 -5 -20 -10 -28 -8 -12 -10 -9 -10 13 0 15 5 27 10 27 6 0 10
-6 10 -12z m-33 -80 c-3 -8 -6 -5 -6 6 -1 11 2 17 5 13 3 -3 4 -12 1 -19z
m410 -250 c-3 -8 -6 -5 -6 6 -1 11 2 17 5 13 3 -3 4 -12 1 -19z m-204 -28 c-3
-12 -8 -19 -11 -16 -5 6 5 36 12 36 2 0 2 -9 -1 -20z m237 -26 c0 -8 -4 -14
-10 -14 -5 0 -10 9 -10 21 0 11 5 17 10 14 6 -3 10 -13 10 -21z m-205 -426 c6
-30 8 -49 6 -73 -2 -31 -17 2 -24 53 -5 43 9 60 18 20z m172 -120 c-3 -7 -5
-2 -5 12 0 14 2 19 5 13 2 -7 2 -19 0 -25z m-360 -60 c-3 -7 -5 -2 -5 12 0 14
2 19 5 13 2 -7 2 -19 0 -25z"/>
<path d="M3031 764 c0 -11 3 -14 6 -6 3 7 2 16 -1 19 -3 4 -6 -2 -5 -13z"/>
<path d="M3380 3756 c0 -9 5 -16 10 -16 6 0 10 4 10 9 0 6 -4 13 -10 16 -5 3
-10 -1 -10 -9z"/>
<path d="M3368 3712 c-21 -9 -38 -22 -38 -29 0 -18 7 -16 32 7 12 10 24 17 28
15 5 -3 10 2 14 10 3 8 4 15 3 14 -1 0 -19 -8 -39 -17z"/>
<path d="M3290 3712 c0 -5 7 -9 15 -9 8 0 12 4 9 9 -3 4 -9 8 -15 8 -5 0 -9
-4 -9 -8z"/>
<path d="M3512 3340 c0 -14 2 -19 5 -12 2 6 2 18 0 25 -3 6 -5 1 -5 -13z"/>
<path d="M3545 3260 c3 -5 10 -10 16 -10 5 0 9 5 9 10 0 6 -7 10 -16 10 -8 0
-12 -4 -9 -10z"/>
<path d="M2873 2405 c0 -22 2 -30 4 -17 2 12 2 30 0 40 -3 9 -5 -1 -4 -23z"/>
<path d="M2972 2220 c0 -14 2 -19 5 -12 2 6 2 18 0 25 -3 6 -5 1 -5 -13z"/>
<path d="M4312 1595 c2 -33 25 -41 47 -17 10 10 8 12 -15 6 -16 -4 -25 -3 -21
3 3 5 1 15 -4 23 -7 11 -9 7 -7 -15z"/>
<path d="M3980 1330 c-13 -8 -12 -10 3 -10 9 0 17 5 17 10 0 12 -1 12 -20 0z"/>
<path d="M3960 1306 c0 -2 11 -6 25 -8 13 -3 22 -1 19 3 -5 9 -44 13 -44 5z"/>
<path d="M4723 1253 c-7 -15 -13 -53 -13 -85 0 -32 -4 -58 -10 -58 -5 0 -10
-11 -10 -24 0 -19 5 -24 20 -23 11 1 20 5 20 9 0 4 12 8 26 8 14 0 23 4 19 10
-4 6 9 10 32 10 21 0 47 7 57 15 11 8 14 15 8 15 -7 0 -12 7 -12 15 0 8 -11
25 -25 39 -14 14 -25 30 -25 36 0 6 -5 8 -10 5 -6 -3 -13 1 -16 9 -3 9 -14 16
-24 16 -10 0 -20 7 -22 15 -2 10 -7 5 -15 -12z"/>
<path d="M4688 1017 c-4 -21 -1 -27 13 -27 22 0 24 10 5 35 -12 17 -13 17 -18
-8z"/>
<path d="M2680 953 c0 -13 5 -23 10 -23 13 0 13 11 0 30 -8 12 -10 11 -10 -7z"/>
<path d="M2702 895 c0 -16 2 -22 5 -12 2 9 2 23 0 30 -3 6 -5 -1 -5 -18z"/>
<path d="M2711 834 c0 -11 3 -14 6 -6 3 7 2 16 -1 19 -3 4 -6 -2 -5 -13z"/>
<path d="M4590 257 c0 -15 -4 -27 -10 -27 -6 0 -10 -45 -10 -115 0 -108 1
-115 20 -115 19 0 20 7 21 103 1 56 0 116 -1 132 -2 39 -20 58 -20 22z"/>
<path d="M2961 84 c0 -11 3 -14 6 -6 3 7 2 16 -1 19 -3 4 -6 -2 -5 -13z"/>
<path d="M2595 62 c-14 -10 -17 -32 -9 -51 5 -12 9 -6 15 19 8 39 8 42 -6 32z"/>
<path d="M2945 39 c-4 -6 -5 -12 -2 -15 2 -3 7 2 10 11 7 17 1 20 -8 4z"/>
</g>
</svg>
